<svg xmlns="http://www.w3.org/2000/svg" width="36" height="37" viewBox="0 0 36 37" fill="none"><g style="mix-blend-mode:multiply"><rect x="2" y="2.5" width="32" height="32" rx="16" fill="#FFF1EB"></rect><rect x="2" y="2.5" width="32" height="32" rx="16" stroke="#FFFAF8" stroke-width="4"></rect><path d="M18 15.8375V18.8375M18.9345 12.0941L19.8503 12.8745C20.081 13.0711 20.3674 13.1899 20.6696 13.214L21.8688 13.3096C22.5739 13.3659 23.134 13.9256 23.1903 14.6307L23.2856 15.8302C23.3097 16.1323 23.429 16.4192 23.6256 16.6499L24.4057 17.5654C24.8644 18.1037 24.8645 18.8957 24.4057 19.434L23.6257 20.3496C23.4291 20.5803 23.31 20.8673 23.2859 21.1695L23.1899 22.3687C23.1336 23.0738 22.5744 23.6339 21.8693 23.6902L20.6696 23.7859C20.3675 23.81 20.0808 23.9285 19.8501 24.1252L18.9345 24.9055C18.3962 25.3643 17.6038 25.3644 17.0654 24.9056L16.1499 24.1252C15.9192 23.9286 15.6324 23.8099 15.3303 23.7857L14.1306 23.6902C13.4255 23.6339 12.8663 23.074 12.81 22.3689L12.7141 21.1695C12.69 20.8674 12.5708 20.5807 12.3742 20.35L11.5942 19.4341C11.1354 18.8957 11.1352 18.104 11.594 17.5657L12.3747 16.6498C12.5713 16.4191 12.6893 16.1323 12.7134 15.8302L12.8094 14.6308C12.8656 13.9257 13.4264 13.3658 14.1315 13.3095L15.3299 13.214C15.6321 13.1899 15.9189 13.0711 16.1496 12.8745L17.0655 12.0941C17.6038 11.6353 18.3962 11.6353 18.9345 12.0941ZM18.0373 21.0875V21.1625L17.9626 21.1622V21.0875H18.0373Z" stroke="#FF8447" stroke-width="1.5" stroke-linecap="round" stroke-linejoin="round"></path></g></svg>